<svg width="1000" height="641" viewBox="0 0 1000 641" fill="none" xmlns="http://www.w3.org/2000/svg">
<g clip-path="url(#clip0_5_4)">
<path d="M166.186 313.998C166.136 301.195 166.045 288.392 166.042 275.59C166.028 222.701 166.04 169.813 166.292 116.366C166.756 115.634 166.91 115.417 167.003 115.157C201.973 115.111 236.954 114.547 271.911 115.229C290.515 115.591 308.763 119.174 324.333 130.739C338.489 141.254 346.974 154.877 349.222 172.733C350.67 184.238 349.824 195.26 346.368 206.093C341.372 221.754 330.702 232.799 316.612 240.753C313.665 242.416 310.536 243.758 306.969 245.503C323.253 268.525 339.489 291.479 356.146 315.028C351.212 315.028 346.822 315.027 342.433 315.028C326.278 315.028 310.122 315.107 293.969 314.913C292.266 314.893 289.952 313.713 288.984 312.328C276.244 294.102 263.755 275.701 250.998 257.487C249.838 255.831 247.336 254.335 245.35 254.185C239.554 253.748 233.688 254.286 227.879 253.946C223.694 253.701 222.891 255.39 222.931 259.177C223.108 275.997 223.007 292.819 223.006 309.641C223.006 311.273 223.006 312.905 223.006 315.014C204.447 315.014 186.185 315.014 167.37 314.753C166.659 314.26 166.448 314.096 166.186 313.998ZM224.92 211.959C236.752 211.963 248.597 212.29 260.411 211.835C266.342 211.607 272.6 210.92 278.045 208.762C292.603 202.993 297.144 187.809 289.676 174.344C284.224 164.513 273.954 162.642 263.975 162.195C250.676 161.599 237.327 162.139 223.467 162.076C223.371 162.382 223.275 162.688 223.017 163.92C223.071 179.613 223.125 195.307 223.076 211.535C223.382 211.626 223.687 211.717 224.92 211.959Z" fill="white"/>
<path d="M815.997 540.847C797.86 540.847 779.724 540.847 761.204 540.847C761.204 534.431 761.204 528.022 761.204 520.9C755.907 525.572 751.457 530.13 746.382 533.83C737.875 540.033 728.191 542.904 717.619 544.267C705.267 545.86 693.887 543.299 683.097 538.392C662.179 528.88 649.866 511.66 644.16 489.955C637.8 465.76 639.814 441.807 651.415 419.554C660.764 401.62 675.743 389.083 695.874 385.218C718.763 380.823 740.292 384.042 757.091 402.551C757.949 403.496 758.997 404.268 761.037 406.08C761.037 381.595 761.037 358.26 761.286 334.36C761.755 333.617 761.91 333.395 762.003 333.128C779.694 333.076 797.385 333.025 815.629 333.238C816.339 333.736 816.549 333.903 816.813 334.002C816.868 338.489 816.97 342.976 816.97 347.463C816.974 411.334 816.965 475.204 816.711 539.636C816.247 540.369 816.091 540.586 815.997 540.847ZM710.448 494.079C723.015 503.997 744.277 500.985 754.328 487.561C762.418 476.757 763.845 464.956 760.675 452.83C756.776 437.919 745.977 429.261 732.113 428.126C710.581 426.364 695.869 442.278 695.15 462.86C694.712 475.406 699.529 486.096 710.448 494.079Z" fill="white"/>
<path d="M486.293 423.687C492.686 433.949 495.778 444.814 497.14 456.453C498.966 472.063 495.513 486.418 488.44 500.099C479.113 518.14 464.38 530.292 445.851 537.929C431.895 543.682 417.16 546.263 402.173 544.858C368.474 541.697 341.316 527.21 327.289 495.152C315.641 468.53 318.768 442.308 336.045 418.483C350.412 398.671 370.538 387.269 394.286 384.372C420.883 381.128 446.787 385.02 468.228 403.08C475.041 408.819 480.164 416.566 486.293 423.687ZM396.559 497.094C403.822 500.45 411.509 500.854 418.891 498.494C441.097 491.395 446.294 473.365 442.049 453.795C439.048 439.956 425.21 427.672 406.369 428.792C389.329 429.805 377.458 441.709 375.239 456.929C372.644 474.727 379.425 489.077 396.559 497.094Z" fill="white"/>
<path d="M523.056 207.899C523.719 212.351 524.895 216.358 524.915 220.371C525.069 251.688 525 283.006 525 314.676C506.825 314.676 488.754 314.676 470.176 314.676C470.176 310.069 470.176 305.19 470.176 299.255C466.994 301.697 464.556 303.425 462.276 305.342C449.88 315.767 435.089 319.517 419.51 318.763C402.308 317.93 386.116 313.096 376.126 297.447C369.051 286.366 366.29 274.372 369.389 260.806C374.138 240.016 387.838 229.303 407.31 225.124C427.479 220.796 447.706 221.72 467.566 227.782C468.175 227.968 468.86 227.91 469.5 227.966C472.189 212.517 462.932 201.89 448.33 200.321C430.84 198.443 413.252 199.732 396.653 206.841C395.911 207.159 395.152 207.437 393.995 207.895C392.039 202.07 389.936 196.191 388.1 190.23C386.484 184.983 385.515 179.514 383.59 174.395C382.383 171.183 383.163 169.788 386.065 168.99C395.869 166.294 405.543 162.444 415.53 161.265C430.409 159.509 445.558 158.603 460.509 159.251C479.187 160.062 496.82 165.178 510.176 179.681C517.412 187.538 521.665 196.848 523.056 207.899ZM436.923 249.052C436.016 249.378 435.112 249.712 434.202 250.031C423.754 253.688 419.14 266.534 423.774 275.605C428.064 284.002 435.781 286.175 443.313 285.667C461.453 284.442 472.524 274.678 470.884 254.283C470.79 253.116 469.371 251.488 468.208 251.064C458.291 247.448 448.106 246.939 436.923 249.052Z" fill="white"/>
<path d="M578.266 176.204C590.911 166.226 605.111 160.08 620.529 158.457C643.203 156.07 665.506 158.058 684.34 172.984C690.965 178.234 696.618 184.71 703.076 190.976C689.699 200.592 677.329 209.484 665.043 218.316C643.548 198.724 626.202 197.123 611.06 213.596C598.423 227.344 599.257 251.327 612.747 265.138C623.501 276.147 646.774 280.335 666.347 258.199C672.475 262.538 678.624 266.901 684.783 271.25C690.882 275.556 696.992 279.847 704.341 285.021C695.486 292.684 687.519 300.271 678.825 306.908C670.035 313.618 659.253 316.112 648.574 317.881C633.011 320.459 617.488 319.517 602.614 313.96C574.207 303.344 556.082 283.533 550.009 253.439C549.017 248.523 548.049 243.473 548.107 238.496C548.329 219.346 554.242 202.126 566.955 187.567C570.383 183.642 574.303 180.146 578.266 176.204Z" fill="white"/>
<path d="M210.001 462.201C211.072 475.85 213.98 488.028 226.703 495.366C238.395 502.108 250.007 501.564 261.315 494.974C266.081 492.196 270.135 488.196 274.806 484.521C286.525 492.749 298.7 501.297 311.132 510.026C300.426 523.877 288.277 534.934 271.507 540.162C246.595 547.928 222.234 547.062 198.99 534.894C177.354 523.568 163.892 505.282 158.126 481.709C152.313 457.945 158.105 436.137 172.181 416.721C183.768 400.737 199.89 390.678 219.157 386.464C243.872 381.06 268.034 382.216 289.575 397.125C297.388 402.533 303.83 409.923 311.366 416.839C297.803 426.585 285.531 435.402 273.525 444.028C268.502 440.035 264.259 435.344 258.989 432.703C236.855 421.611 214.011 434.125 210.978 457.999C210.817 459.27 210.335 460.501 210.001 462.201Z" fill="white"/>
<path d="M579.841 415.977C583.723 410.002 587.01 403.51 591.633 398.178C597.934 390.91 606.498 386.78 616.001 385.041C620.128 384.286 624.365 384.127 628.816 383.67C628.816 402.781 628.816 421.191 628.816 439.334C621.467 440.587 614.098 441.137 607.164 443.172C592.869 447.368 584.712 457.601 580.948 471.83C578.135 482.466 577.93 493.247 578.008 504.111C578.096 516.241 578.028 528.372 578.028 541.018C559.833 541.018 541.906 541.018 523.492 541.006C523.004 540.993 523.079 540.945 523.079 540.945C523.048 490.206 523.016 439.467 522.997 388.728C522.996 388.267 523.161 387.807 523.282 387.17C541.436 387.17 559.488 387.17 578.041 387.17C578.041 396.222 578.041 405.149 578.031 414.879C578.289 416.108 578.557 416.533 578.825 416.957C579.163 416.63 579.502 416.304 579.841 415.977Z" fill="white"/>
<path d="M851.812 576C851.866 546.721 851.921 517.441 851.973 488.161C851.98 484.339 851.974 480.517 851.974 476.347C859.121 476.347 866.194 476.347 873.988 476.347C873.988 516.731 873.988 557.404 873.733 598.63C873.25 599.34 873.091 599.548 872.998 599.808C871.837 599.859 870.676 599.955 869.515 599.955C788.651 599.958 707.788 599.953 626.368 599.701C625.639 599.239 625.424 599.087 625.166 598.997C625.166 591.864 625.166 584.731 625.166 576.975C700.147 576.975 775.111 576.975 850.807 576.951C851.63 576.618 851.721 576.309 851.812 576Z" fill="white"/>
<path d="M93.0027 52.1528C97.9947 52.0971 102.987 51.9934 107.979 51.9928C185.421 51.9825 262.863 51.9856 340.666 51.9856C340.666 59.2464 340.666 66.4382 340.666 74.0391C338.841 74.0391 337.054 74.0391 335.267 74.0391C263.984 74.0393 192.701 74.0392 121.417 74.0398C115.001 74.0398 115 74.0416 115 80.6376C114.999 110.616 114.999 140.595 114.999 170.574C114.999 172.21 114.999 173.846 114.999 175.993C107.792 175.993 100.857 175.993 93.3692 175.735C92.6574 175.251 92.4484 175.091 92.1888 174.998C92.1407 134.64 92.0925 94.2822 92.2936 53.365C92.7583 52.6318 92.9116 52.4142 93.0027 52.1528Z" fill="white"/>
<path d="M848.947 150.956C848.947 159.606 848.947 168.257 848.947 177.328C815.473 177.328 782.428 177.328 748.41 177.328C748.41 144.603 748.41 111.866 748.624 78.59C749.046 77.8797 749.171 77.6604 749.212 77.394C757.512 77.3381 765.811 77.2821 774.556 77.1248C775.001 77.0234 775.042 76.9849 774.983 77.4518C774.945 88.37 774.934 98.8216 774.996 109.273C775.076 122.533 775.215 135.793 775.358 149.449C776.696 150.253 778.003 151.016 779.311 151.018C802.554 151.067 825.797 151.024 849.024 150.975C849.008 150.949 848.947 150.956 848.947 150.956Z" fill="#E93B52"/>
<path d="M851.029 151.145C850.568 151.086 850.107 151.027 849.296 150.962C848.947 150.956 849.008 150.949 849.037 150.506C849.065 125.886 849.065 101.709 849.065 77.0941C824.14 77.0941 800.071 77.0941 775.775 76.9528C775.38 76.8693 775.211 76.9271 775.042 76.9849C775.042 76.9849 775.001 77.0234 775.021 77.0425C775.164 68.7768 775.286 60.4919 775.721 51.6801C776.402 50.9504 776.771 50.7476 777.141 50.5447C809.601 50.6178 842.062 50.6896 874.522 50.7825C874.805 50.7833 875.087 51.0664 875.637 51.361C875.709 52.3365 875.865 53.4661 875.865 54.5957C875.88 85.7303 875.88 116.865 875.867 147.999C875.867 148.822 875.693 149.644 874.829 150.69C866.381 150.992 858.705 151.068 851.029 151.145Z" fill="#6BC2B5"/>
<path d="M851.341 151.412C858.705 151.068 866.381 150.992 874.52 150.983C867.206 151.26 859.43 151.47 851.341 151.412Z" fill="#131312"/>
<path d="M579.623 415.874C579.502 416.304 579.163 416.63 578.825 416.957C578.557 416.533 578.289 416.108 578.105 415.343C578.594 415.259 579 415.515 579.623 415.874Z" fill="#0D0D0C"/>
<path d="M776.903 50.3712C776.771 50.7476 776.402 50.9505 775.726 51.2322C775.834 50.9399 776.25 50.5687 776.903 50.3712Z" fill="#305C54"/>
<path d="M761.725 333.073C761.91 333.395 761.755 333.617 761.357 333.896C761.267 333.671 761.357 333.345 761.725 333.073Z" fill="#EEEFEF"/>
<path d="M816.872 333.729C816.549 333.903 816.339 333.736 816.091 333.32C816.311 333.243 816.621 333.349 816.872 333.729Z" fill="#EEEFEF"/>
<path d="M166.127 314.27C166.449 314.096 166.659 314.26 166.908 314.673C166.688 314.75 166.378 314.646 166.127 314.27Z" fill="#EEEFEF"/>
<path d="M92.1292 175.266C92.4486 175.091 92.6575 175.251 92.9067 175.654C92.6882 175.733 92.3788 175.634 92.1292 175.266Z" fill="#EEEFEF"/>
<path d="M166.731 115.108C166.91 115.417 166.756 115.634 166.364 115.902C166.277 115.684 166.367 115.372 166.731 115.108Z" fill="#EEEFEF"/>
<path d="M748.961 77.3764C749.171 77.6605 749.046 77.8797 748.668 78.1397C748.569 77.938 748.639 77.6484 748.961 77.3764Z" fill="#7A1A27"/>
<path d="M92.73 52.1038C92.9117 52.4142 92.7584 52.6318 92.3652 52.901C92.2774 52.6826 92.3674 52.3687 92.73 52.1038Z" fill="#EEEFEF"/>
<path d="M816.27 540.891C816.091 540.586 816.247 540.369 816.64 540.1C816.726 540.314 816.634 540.624 816.27 540.891Z" fill="#EEEFEF"/>
<path d="M523.028 540.957C522.96 540.961 522.868 541.001 522.927 540.994C523.078 540.945 523.004 540.993 523.028 540.957Z" fill="#0D0D0C"/>
<path d="M851.637 576.093C851.721 576.309 851.63 576.618 851.269 576.872C851.092 576.561 851.246 576.351 851.637 576.093Z" fill="#0D0D0C"/>
<path d="M625.118 599.267C625.424 599.087 625.639 599.239 625.903 599.629C625.688 599.716 625.379 599.627 625.118 599.267Z" fill="#EEEFEF"/>
<path d="M873.266 599.869C873.091 599.548 873.25 599.34 873.655 599.093C873.733 599.311 873.633 599.62 873.266 599.869Z" fill="#EEEFEF"/>
<path d="M223.128 211.268C223.437 211.089 223.647 211.242 223.903 211.633C223.688 211.717 223.382 211.626 223.128 211.268Z" fill="#0D0D0C"/>
<path d="M223.733 162.134C223.908 162.448 223.753 162.657 223.355 162.905C223.275 162.688 223.371 162.382 223.733 162.134Z" fill="#0D0D0C"/>
<path d="M776.002 77.0941C800.071 77.0941 824.14 77.0941 849.065 77.0941C849.065 101.709 849.065 125.887 849.053 150.532C825.798 151.024 802.554 151.067 779.311 151.018C778.003 151.016 776.697 150.253 775.581 149.102C775.849 124.604 775.926 100.849 776.002 77.0941Z" fill="#004769"/>
<path d="M775.775 76.9529C775.926 100.849 775.849 124.604 775.55 148.706C775.215 135.793 775.076 122.533 774.997 109.273C774.934 98.8217 774.945 88.3701 774.983 77.4518C775.211 76.9272 775.38 76.8694 775.775 76.9529Z" fill="#523E53"/>
</g>
<defs>
<clipPath id="clip0_5_4">
<rect width="1000" height="641" fill="white"/>
</clipPath>
</defs>
</svg>
