<svg width="1217" height="780" viewBox="0 0 1217 780" fill="none" xmlns="http://www.w3.org/2000/svg">
<g clip-path="url(#clip0_5_41)">
<path d="M330.789 352.205C321.69 339.041 312.914 326.089 303.782 313.394C302.504 311.617 299.528 310.32 297.24 310.154C291.108 309.71 284.923 309.989 278.758 310.003C272.036 310.019 272.01 310.03 272.005 316.602C271.992 337.26 271.853 357.921 272.104 378.576C272.165 383.64 270.607 385.169 265.561 385.103C246.072 384.847 226.576 384.86 207.087 385.096C202.163 385.156 200.912 383.403 200.919 378.725C201.034 300.922 201.047 223.119 200.897 145.317C200.887 140.118 202.646 138.889 207.544 138.907C250.027 139.069 292.518 138.524 334.991 139.204C355.832 139.539 375.943 144.521 393.62 156.434C413.008 169.5 423.47 187.811 426.181 211.101C428.121 227.772 426.27 243.702 419.459 258.878C411.456 276.71 397.332 288.614 379.94 296.716C375.882 298.607 375.921 300.174 378.151 303.297C395.938 328.209 413.671 353.158 431.389 378.118C432.61 379.838 433.573 381.739 435.146 384.376C432.806 384.645 431.265 384.974 429.724 384.976C405.9 385.008 382.076 384.936 358.252 385.066C354.671 385.085 352.455 383.862 350.487 380.9C344.133 371.338 337.515 361.952 330.789 352.205ZM350.001 210.605C343.664 202.843 335.091 199.452 325.462 199.07C309.348 198.429 293.21 198.405 277.087 197.953C273.084 197.84 271.915 199.481 271.947 203.274C272.082 219.095 272.083 234.919 271.947 250.741C271.914 254.549 273.118 256.099 277.101 256.058C292.422 255.9 307.754 256.282 323.066 255.869C331.115 255.651 339.029 253.517 345.289 248.081C356.667 238.2 358.28 225.444 350.001 210.605Z" fill="#1D1D1B"/>
<path d="M924.974 487.848C924.993 461.482 925.11 435.49 924.902 409.5C924.862 404.539 926.215 402.82 931.363 402.893C950.519 403.163 969.683 403.135 988.841 402.907C993.673 402.849 995.092 404.434 995.085 409.203C994.966 490.675 994.957 572.148 995.1 653.62C995.109 658.735 993.506 660.167 988.517 660.101C969.527 659.85 950.532 660.009 931.538 659.994C925.028 659.989 925.02 659.961 925.003 653.177C924.99 647.906 925 642.635 925 635.705C921.925 638.69 919.889 640.51 918.03 642.495C903.514 657.995 884.99 664.285 864.477 663.823C828.521 663.013 800.258 642.337 787.11 609.534C775.479 580.516 775.454 550.793 786.171 521.701C797.022 492.247 817.819 472.481 849.337 466.597C876.331 461.558 900.963 467 920.913 487.396C923.133 489.666 923.184 489.616 924.974 487.848ZM847.004 566.341C848.131 579.476 852.944 590.618 863.527 599.129C874.771 608.17 893.393 609.243 905.808 601.894C925.994 589.945 931.296 562.676 920.765 542.513C910.344 522.561 884.659 515.512 865.848 527.848C852.465 536.624 847.145 549.814 847.004 566.341Z" fill="#1D1D1B"/>
<path d="M449.759 474.669C467.4 467.11 485.543 464.108 504.217 465.081C529.828 466.416 552.986 474.44 572.866 491.254C591.391 506.922 602.458 526.814 605.654 550.558C609.186 576.799 603.409 601.229 586.926 622.41C568.155 646.53 543.054 659.439 512.903 663.056C488.131 666.027 464.307 662.848 442.221 650.996C412.665 635.135 394.245 610.997 389.92 577.124C386.229 548.224 394.176 522.918 413.398 500.998C423.467 489.517 435.738 481.253 449.759 474.669ZM474.13 529.576C471.786 531.664 469.051 533.449 467.163 535.89C455.9 550.446 453.607 566.434 461.324 583.178C470.538 603.17 493.578 612.098 513.813 603.572C530.683 596.464 539.769 579.9 538.115 560.348C535.483 529.236 500.668 511.937 474.13 529.576Z" fill="#1D1D1B"/>
<path d="M473.642 239.394C470.627 229.458 467.827 219.874 464.824 210.354C463.782 207.048 464.845 205.589 467.991 204.442C488.612 196.925 509.741 192.718 531.778 191.777C552.423 190.894 572.609 191.976 592.246 198.623C620.549 208.202 638.353 231.816 638.909 261.713C639.639 300.989 639.626 340.279 640.058 379.562C640.104 383.68 638.712 385.099 634.577 385.066C615.089 384.911 595.598 384.921 576.109 385.058C572.137 385.085 570.759 383.573 570.956 379.747C571.168 375.64 571.004 371.513 571.004 366.32C567.902 368.795 565.634 370.581 563.39 372.398C551.49 382.038 537.774 386.568 522.619 388.204C507.473 389.839 492.953 388.024 479.283 381.787C461.583 373.712 450.973 359.838 447.912 340.293C446.361 330.387 446.814 320.681 449.528 311.161C455.607 289.834 471.523 278.84 491.588 273.199C516.417 266.218 541.307 268.384 566.019 274.524C567.285 274.839 568.557 275.125 569.79 275.416C572.314 269.048 568.874 258.576 562.692 252.88C556.09 246.795 548.048 244.535 539.389 244.026C520.197 242.898 501.516 245.516 483.541 252.39C479.418 253.966 477.353 253.228 476.409 248.879C475.74 245.798 474.669 242.803 473.642 239.394ZM563.508 335.991C570.259 329.284 571.843 320.799 572.045 311.751C572.121 308.352 570.876 306.31 567.535 305.72C560.36 304.454 553.178 302.281 545.991 302.251C536.335 302.212 526.717 303.868 519.653 311.85C510.434 322.267 514.037 339.111 526.911 343.713C540.198 348.462 552.431 346.214 563.508 335.991Z" fill="#1D1D1B"/>
<path d="M309.103 524.631C293.448 519.968 279.732 522.393 268.419 534.133C250.94 552.273 253.834 585.608 274.022 600.326C285.852 608.951 304.903 609.406 317.451 600.905C322.232 597.666 326.278 593.358 330.855 589.789C331.984 588.91 334.447 588.184 335.34 588.792C350.169 598.892 364.846 609.215 380.017 619.81C378.282 622.28 376.886 624.488 375.277 626.526C358.562 647.704 336.718 659.666 309.99 662.989C291.385 665.303 272.998 664.523 255.38 657.871C218.372 643.899 195.721 617.692 189.981 578.102C186.152 551.699 192.329 527.47 208.343 506.075C224.56 484.408 246.634 471.91 273.003 467.185C295.539 463.147 317.681 465.027 339.042 473.836C355.954 480.811 368.319 493.004 379.11 508.278C374.391 511.681 369.88 514.937 365.365 518.187C355.376 525.379 345.351 532.521 335.42 539.791C332.699 541.782 330.851 542.033 328.396 539.08C323.249 532.887 317.174 527.699 309.103 524.631Z" fill="#1D1D1B"/>
<path d="M855.038 231.745C854.691 233.085 854.443 234.528 853.595 235.144C840 245.017 826.275 254.713 812.713 264.631C809.476 266.999 807.493 266.683 804.951 263.581C797.003 253.88 786.834 247.849 774.11 247.347C761.506 246.849 750.812 251.599 743.276 261.736C728.447 281.686 731.164 307.096 749.448 323.937C760.04 333.692 781.176 334.84 794.374 325.959C799.164 322.735 803.19 318.393 807.799 314.869C809.006 313.947 811.677 313.318 812.688 314.006C827.391 324.013 841.925 334.267 857.165 344.928C854.47 348.472 852.15 351.846 849.508 354.946C825.809 382.756 794.414 391.476 759.678 388.677C723.32 385.747 694.66 368.418 677.165 335.801C663.138 309.65 661.747 281.813 672.635 254.181C686.728 218.415 714.275 198.743 751.469 192.031C773.55 188.047 795.159 190.314 816.027 198.836C832.477 205.555 844.613 217.374 855.038 231.745Z" fill="#1D1D1B"/>
<path d="M673 660C661.839 659.999 651.175 659.87 640.518 660.063C636.485 660.137 634.929 658.877 634.936 654.657C635.035 594.522 635.027 534.387 634.95 474.252C634.945 470.438 636.135 468.916 640.109 468.943C660.097 469.078 680.088 469.062 700.077 468.955C703.744 468.935 705.105 470.281 705.046 473.938C704.892 483.395 704.994 492.856 706.053 502.705C707.066 500.74 708.003 498.731 709.104 496.816C720.906 476.297 738.45 465.717 762.33 465.96C765.76 465.994 767.048 467.271 767.034 470.689C766.95 491.177 766.936 511.667 767.046 532.156C767.066 535.899 765.474 536.677 762.002 537.127C752.838 538.314 743.253 538.81 734.752 542.012C718.638 548.081 710.302 561.434 707.196 577.914C705.82 585.216 705.217 592.745 705.095 600.184C704.801 618.003 704.825 635.833 705.108 653.653C705.19 658.82 703.44 660.3 698.483 660.094C690.168 659.748 681.829 660 673 660Z" fill="#1D1D1B"/>
<path d="M123.021 215C109.399 214.834 111.038 216.652 111.022 203.666C110.966 158.842 110.998 114.017 111.003 69.1925C111.003 62.0188 111.018 62.0028 118.17 62.0026C215.151 61.999 312.132 61.9987 409.113 62.0035C415.977 62.0039 415.983 62.0257 415.998 68.9752C416.009 74.1408 415.72 79.326 416.08 84.4665C416.425 89.4117 414.856 91.2511 409.663 91.1083C397.341 90.7696 385.004 91 372.673 91C298.021 91.0001 223.369 90.9992 148.716 91.0013C141.01 91.0015 141.002 91.0094 141.002 98.6456C140.998 135.138 141.004 171.631 140.996 208.124C140.995 214.977 140.974 214.98 134.014 214.998C130.514 215.007 127.015 215 123.021 215Z" fill="#1D1D1B"/>
<path d="M804 701C878.485 701 952.469 701 1026.45 701C1035 701 1035 700.997 1035 692.685C1035 656.359 1035 620.033 1035 583.707C1035.01 577.034 1035.03 577.022 1041.66 577.004C1047.65 576.988 1053.66 577.197 1059.65 576.937C1063.88 576.754 1065.08 578.48 1065.06 582.514C1064.94 609.175 1065 635.836 1065 662.497C1065 682.993 1064.9 703.49 1065.08 723.984C1065.12 728.451 1063.85 730.089 1059.15 730.084C961.34 729.971 863.527 729.977 765.714 730.07C761.39 730.074 759.712 728.768 759.929 724.348C760.222 718.363 760.197 712.345 759.938 706.358C759.755 702.134 761.464 700.878 765.509 700.936C778.17 701.116 790.836 701.001 804 701Z" fill="#1D1D1B"/>
<path d="M942.863 92.9846C942.863 82.5261 942.863 72.0677 942.863 61.3058C984.001 61.3058 1024.69 61.3058 1065.69 61.3058C1065.69 101.994 1065.69 142.684 1065.69 184.005C1055.13 184.005 1044.54 184.005 1033.52 184.021C1033.08 184.036 1033.08 183.971 1033 183.51C1032.92 153.5 1032.92 123.951 1032.92 94.1888C1030.76 94.0681 1029.29 93.9118 1027.82 93.9152C999.71 93.9821 971.595 94.0678 943.312 93.8653C943.051 93.3822 942.957 93.1834 942.863 92.9846Z" fill="#6BC1B3"/>
<path d="M942.403 92.991C942.957 93.1834 943.051 93.3823 943.283 94.3226C943.412 122.861 943.491 150.658 943.302 178.453C943.272 182.743 944.724 183.721 948.74 183.687C969.045 183.511 989.352 183.573 1009.66 183.623C1017.47 183.642 1025.27 183.85 1033.08 183.971C1033.08 183.971 1033.08 184.036 1033.05 184.035C1033.02 194.495 1033.02 204.957 1033.02 215.707C991.906 215.707 951.201 215.707 910.248 215.707C910.248 174.934 910.248 134.347 910.248 92.9973C920.78 92.9973 931.362 92.9973 942.403 92.991Z" fill="#E83D53"/>
<path d="M1033 183.51C1025.27 183.85 1017.47 183.642 1009.66 183.623C989.352 183.573 969.045 183.511 948.74 183.687C944.724 183.721 943.272 182.743 943.302 178.453C943.491 150.658 943.412 122.861 943.45 94.6068C971.595 94.0678 999.71 93.9821 1027.82 93.9152C1029.29 93.9118 1030.76 94.0681 1032.92 94.1888C1032.92 123.951 1032.92 153.5 1033 183.51Z" fill="#024969"/>
</g>
<defs>
<clipPath id="clip0_5_41">
<rect width="1217" height="780" fill="white"/>
</clipPath>
</defs>
</svg>
